<svg xmlns="http://www.w3.org/2000/svg" viewBox="0 0 255.21 292.88"><defs><style>.cls-1{fill:#6949ea;}.cls-2{fill:#161616;}.cls-3{fill:#fff;}.cls-4{font-size:80.37px;font-family:MyriadPro-Regular, Myriad Pro;}</style></defs><title>Asset 2Marmitte</title><g id="Layer_2" data-name="Layer 2"><g id="Layer_1-2" data-name="Layer 1"><path class="cls-1" d="M255.21,267.87a15.79,15.79,0,0,1-25.78,12.22c-12.26-10-24.44-22.24-37.1-22.24-22.53,0-46.44,35-69,35-20.77,0-42.5-32.36-63.26-32.36-11.71,0-23.1,10.71-34.54,19.81A15.78,15.78,0,0,1,0,267.93V117.79C0,52.74,46,0,102.64,0h49.93c56.68,0,102.64,52.74,102.64,117.79Z"/><circle class="cls-2" cx="82.77" cy="75.61" r="36.08"/><circle class="cls-2" cx="163.95" cy="75.61" r="36.08"/><circle class="cls-3" cx="59.95" cy="58.1" r="13.26"/><circle class="cls-3" cx="146.97" cy="55.98" r="13.26"/><text class="cls-4" transform="translate(96.85 135.19) rotate(90)">3</text></g></g></svg>