<svg xmlns="http://www.w3.org/2000/svg" viewBox="0 0 348.7 400.17"><defs><style>.cls-1{fill:#ed4848;}.cls-2{fill:#161616;}.cls-3{fill:#fff;}.cls-4{font-size:109.82px;font-family:MyriadPro-Regular, Myriad Pro;}</style></defs><title>Asset 3Marmitte</title><g id="Layer_2" data-name="Layer 2"><g id="Layer_1-2" data-name="Layer 1"><path class="cls-1" d="M348.7,366c0,18.19-21.12,28.2-35.22,16.7-16.76-13.67-33.39-30.38-50.69-30.38-30.78,0-63.45,47.85-94.23,47.85-28.37,0-58.06-44.22-86.44-44.22-16,0-31.57,14.64-47.2,27.07C20.82,394.23,0,384.1,0,366.08V160.94C0,72.05,62.79,0,140.24,0h68.22C285.91,0,348.7,72.05,348.7,160.94Z"/><circle class="cls-2" cx="113.09" cy="103.3" r="49.3"/><circle class="cls-2" cx="224.01" cy="103.3" r="49.3"/><circle class="cls-3" cx="81.92" cy="79.38" r="18.12"/><circle class="cls-3" cx="200.81" cy="76.48" r="18.12"/><text class="cls-4" transform="translate(132.33 184.71) rotate(90)">3</text></g></g></svg>