<svg xmlns="http://www.w3.org/2000/svg" viewBox="0 0 826.46 452"><defs><style>.cls-1{fill:#dfea49;}.cls-2{fill:#161616;}.cls-3{fill:#fff;}.cls-4{font-size:80.37px;}.cls-4,.cls-9{font-family:MyriadPro-Regular, Myriad Pro;}.cls-5{fill:#49ead3;}.cls-6{fill:#90ea49;}.cls-7{fill:#6949ea;}.cls-8{fill:#ed4848;}.cls-9{font-size:109.82px;}</style></defs><title>Asset 8Marmitte</title><g id="Layer_2" data-name="Layer 2"><g id="Layer_1-2" data-name="Layer 1"><path class="cls-1" d="M402.37,267.87a15.79,15.79,0,0,1-25.78,12.22c-12.26-10-24.44-22.24-37.1-22.24-22.53,0-46.44,35-69,35-20.77,0-42.5-32.36-63.26-32.36-11.71,0-23.1,10.71-34.54,19.81a15.78,15.78,0,0,1-25.56-12.39V117.79C147.16,52.74,193.11,0,249.8,0h49.93c56.68,0,102.64,52.74,102.64,117.79Z"/><circle class="cls-2" cx="229.93" cy="75.61" r="36.08"/><circle class="cls-2" cx="311.11" cy="75.61" r="36.08"/><circle class="cls-3" cx="207.12" cy="58.1" r="13.26"/><circle class="cls-3" cx="294.13" cy="55.98" r="13.26"/><text class="cls-4" transform="translate(244.01 135.19) rotate(90)">3</text><path class="cls-5" d="M255.21,352a15.79,15.79,0,0,1-25.78,12.22C217.16,354.18,205,342,192.33,342c-22.53,0-46.44,35-69,35-20.77,0-42.5-32.36-63.26-32.36-11.71,0-23.1,10.71-34.54,19.81A15.78,15.78,0,0,1,0,352V201.88C0,136.83,46,84.09,102.64,84.09h49.93c56.68,0,102.64,52.74,102.64,117.79Z"/><circle class="cls-2" cx="82.77" cy="159.7" r="36.08"/><circle class="cls-2" cx="163.95" cy="159.7" r="36.08"/><circle class="cls-3" cx="59.95" cy="142.19" r="13.26"/><circle class="cls-3" cx="146.97" cy="140.07" r="13.26"/><text class="cls-4" transform="translate(96.85 219.28) rotate(90)">3</text><path class="cls-6" d="M715.54,267.87a15.79,15.79,0,0,1-25.78,12.22c-12.26-10-24.44-22.24-37.1-22.24-22.53,0-46.44,35-69,35-20.77,0-42.5-32.36-63.26-32.36-11.71,0-23.1,10.71-34.54,19.81a15.78,15.78,0,0,1-25.56-12.39V117.79C460.34,52.74,506.29,0,563,0h49.93c56.68,0,102.64,52.74,102.64,117.79Z"/><circle class="cls-2" cx="543.11" cy="75.61" r="36.08"/><circle class="cls-2" cx="624.28" cy="75.61" r="36.08"/><circle class="cls-3" cx="520.29" cy="58.1" r="13.26"/><circle class="cls-3" cx="607.31" cy="55.98" r="13.26"/><text class="cls-4" transform="translate(557.19 135.19) rotate(90)">3</text><path class="cls-7" d="M826.46,352a15.79,15.79,0,0,1-25.78,12.22c-12.26-10-24.44-22.24-37.1-22.24-22.53,0-46.44,35-69,35-20.77,0-42.5-32.36-63.26-32.36-11.71,0-23.1,10.71-34.54,19.81A15.78,15.78,0,0,1,571.25,352V201.88c0-65.05,46-117.79,102.64-117.79h49.93c56.68,0,102.64,52.74,102.64,117.79Z"/><circle class="cls-2" cx="654.02" cy="159.7" r="36.08"/><circle class="cls-2" cx="735.2" cy="159.7" r="36.08"/><circle class="cls-3" cx="631.21" cy="142.19" r="13.26"/><circle class="cls-3" cx="718.22" cy="140.07" r="13.26"/><text class="cls-4" transform="translate(668.1 219.28) rotate(90)">3</text><path class="cls-8" d="M587.58,417.84c0,18.19-21.12,28.2-35.22,16.7-16.76-13.67-33.39-30.38-50.69-30.38-30.78,0-63.45,47.85-94.23,47.85-28.37,0-58.06-44.22-86.44-44.22-16,0-31.57,14.64-47.2,27.07-14.1,11.21-34.92,1.08-34.92-16.93V212.77c0-88.88,62.79-160.94,140.24-160.94h68.22c77.45,0,140.24,72.05,140.24,160.94Z"/><circle class="cls-2" cx="351.97" cy="155.14" r="49.3"/><circle class="cls-2" cx="462.89" cy="155.14" r="49.3"/><circle class="cls-3" cx="320.8" cy="131.21" r="18.12"/><circle class="cls-3" cx="439.69" cy="128.31" r="18.12"/><text class="cls-9" transform="translate(371.21 236.54) rotate(90)">3</text></g></g></svg>