<svg xmlns="http://www.w3.org/2000/svg" viewBox="0 0 366 376"><defs><style>.cls-1{fill:#e8743a;}.cls-2{fill:none;stroke:#a55734;stroke-linecap:round;stroke-linejoin:round;stroke-width:20px;}.cls-3{fill:#a55734;opacity:0.2;}.cls-4{fill:#4c2514;}</style></defs><title>Asset 7Marmitte</title><g id="Layer_2" data-name="Layer 2"><g id="Layer_1-2" data-name="Layer 1"><path class="cls-1" d="M366,221.52v18a135.81,135.81,0,0,1-32,87.58h0a138.11,138.11,0,0,1-20.16,19.56A136.5,136.5,0,0,1,269.44,370a135.88,135.88,0,0,1-39.24,6H134.65a136.76,136.76,0,0,1-100-45.9h0A135.88,135.88,0,0,1,0,239.48v-18C0,166.46,33,118.74,80.26,97.21A135,135,0,0,1,133.57,85c1,0,2,0,2.95,0h93a135.38,135.38,0,0,1,35.24,4.65,133.66,133.66,0,0,1,23.8,8.87h0C334.27,120.63,366,167.55,366,221.52Z"/><path class="cls-2" d="M167,10c16.8,29,18.62,54.17,17.78,68.45-.15,2.54-.39,4.74-.64,6.55-.29,2.11-.6,3.7-.83,4.71h0c-.19.84-.31,1.28-.31,1.28"/><path class="cls-3" d="M103.18,96.38C81.81,136.7,34.53,241.19,57,340.33a10,10,0,0,1-2,8.48,137.53,137.53,0,0,1-20.38-18.72h0C19.31,236.73,57.51,142.76,80.26,97.21l23.69-8.26A9.94,9.94,0,0,1,103.18,96.38Z"/><path class="cls-3" d="M153.72,89.86c-14.57,26.2-85.06,162.77-41.38,278.41a9.9,9.9,0,0,1,.42,5.65,135.53,135.53,0,0,1-21.68-5.74c-17.25-50.71-17.33-109.43-.23-174.7A511.51,511.51,0,0,1,133.57,85c1,0,2,0,2.95,0H155A10,10,0,0,1,153.72,89.86Z"/><path class="cls-3" d="M269.44,370a135,135,0,0,1-21.61,4.76,9.8,9.8,0,0,1,.52-5.3c44.6-115.87-26.27-253.24-40.93-279.6A10,10,0,0,1,206.16,85h21.4a512.19,512.19,0,0,1,42.88,109.05C287.6,259.89,287.26,319,269.44,370Z"/><path class="cls-3" d="M334,327.06h0a138.11,138.11,0,0,1-20.16,19.56,10,10,0,0,1-2.16-8.58c21.11-98-25.31-201.05-46.25-240.8a9.94,9.94,0,0,1-.7-7.6,133.66,133.66,0,0,1,23.8,8.87h0C310.8,143.5,347.86,235.43,334,327.06Z"/><path class="cls-3" d="M230.2,376H210.13a9.54,9.54,0,0,1,.08-1.3c16.36-124.79-15.71-247.48-26.9-285h0c-.19-.63-.37-1.23-.55-1.81a9.4,9.4,0,0,1-.33-1.54,9,9,0,0,1-.1-1.36,8.58,8.58,0,0,1,.1-1.35,9.92,9.92,0,0,1,2.35-5.2c-.15,2.54-.39,4.74-.64,6.55h18.63C214.49,124.57,246.56,248.88,230.2,376Z"/><path class="cls-3" d="M182.53,85a9,9,0,0,1-.1,1.36,9.4,9.4,0,0,1-.33,1.54c-10.65,35.19-44.1,159.89-27.45,286.8a9.54,9.54,0,0,1,.08,1.3H134.65C118.3,248.86,150.37,124.57,162.09,85h20.24a8.58,8.58,0,0,1,.1-1.35A8.58,8.58,0,0,1,182.53,85Z"/><path class="cls-4" d="M67.67,208.81A40.22,40.22,0,0,1,91.5,201h38a40.22,40.22,0,0,1,23.83,7.81A35.41,35.41,0,0,0,165,182.5V154L56,134v48.5A35.41,35.41,0,0,0,67.67,208.81Z"/><path class="cls-4" d="M207.61,209.62A40.25,40.25,0,0,1,232.5,201h38a40.2,40.2,0,0,1,22.69,7A35.39,35.39,0,0,0,304,182.5V134L195,154v28.5A35.42,35.42,0,0,0,207.61,209.62Z"/><path class="cls-4" d="M206.89,325H153a17.63,17.63,0,0,1-16.85-12.45L131,295.82A17.63,17.63,0,0,1,147.87,273h65.45a17.63,17.63,0,0,1,16.46,24l-6.44,16.74A17.63,17.63,0,0,1,206.89,325Z"/></g></g></svg>