<svg xmlns="http://www.w3.org/2000/svg" viewBox="0 0 485.01 535.71"><defs><style>.cls-1{isolation:isolate;}.cls-2,.cls-5{fill:#ffeac5;}.cls-3{fill:#fff;}.cls-4{opacity:0.05;}.cls-4,.cls-5{mix-blend-mode:multiply;}.cls-5{opacity:0.4;}.cls-6{fill:#82e0dc;}.cls-7{fill:#cc83dd;}.cls-8{fill:#e28181;}.cls-9{font-size:34.45px;stroke:#000;stroke-miterlimit:10;stroke-width:2px;font-family:MyriadPro-Regular, Myriad Pro;}.cls-10{fill:#ff7892;opacity:0.5;}</style></defs><title>GoodCupCake</title><g class="cls-1"><g id="Layer_2" data-name="Layer 2"><g id="Layer_1-2" data-name="Layer 1"><g id="_Group_" data-name="&lt;Group&gt;"><path class="cls-2" d="M13.89,298.71c-3-5,40.63,1,36.67,16.85s47.57,19.82,59.46,7.93,71.35-7.93,69.37,9.91,73.34,33.7,77.3,9.91,77.3-21.8,75.32-7.93,63.43,5.95,63.43-5.95,33.7-17.84,43.61-13.87,29.73-15.86,29.73-15.86c-7.93,59.46-51.53,156.58-70.36,207.13-184.33,45.59-303.26-5.95-303.26-5.95Z"/><path d="M248.2,535.71c-96,0-153.56-24.24-157-25.73l-3.74-1.62L4.85,302.79a10.5,10.5,0,0,1,2-11.87c8.21-8.49,32.79-.63,40.75,3.79,12.79,7.1,13.67,16.31,13,21.37,2.54,1.63,9.56,4,20,4.37,12.17.44,20.6-2.1,22.46-4,13.5-13.5,54.48-11.35,72.08-2.89,12.61,6.06,14.47,14.55,14.24,19.74,4.37,5.68,31.73,14.7,50.31,11.45,5.2-.91,7.17-2.52,7.27-3.11,4.4-26.37,50-28.41,70.15-25.3,18.25,2.82,23.6,9.89,24.68,15.74,9.44,2.34,36.59-1.1,44.06-5.74.74-3.88,3.08-8.56,9.19-12.7,11.74-7.95,35.72-11.72,47.21-7.52,3.41-.3,12.91-6.82,19.56-13.47l20.7-20.7-3.87,29c-6.27,47.05-33.21,114.34-54.86,168.4-6.05,15.12-11.77,29.4-16,40.87l-1.83,4.9-5.08,1.26C343,530.74,291.66,535.7,248.2,535.71Zm-145.45-42.5c20.93,7.74,130,43.05,288.23,5.23,4.08-10.71,9.09-23.23,14.36-36.39,16.73-41.79,38.6-96.42,48.91-139.29-6.29,3-12.95,4.38-18.89,2-5.47-2.11-25.65,1.42-30.07,5.9-.37,4-2.69,9.28-10.85,13.49-13.9,7.17-52.45,13.17-66.15,3.43a14.4,14.4,0,0,1-6.09-9.62c-7.23-3.09-31.67-5-47.81,1.21-5.5,2.13-7.7,4.44-7.93,5.77-2.66,16-21,23.19-49,19.31-18.53-2.57-49.13-12-48.05-31-1.78-1.65-8.51-4.87-21-6.16-16.75-1.73-29.19,1.24-31.45,3.39-13.27,13.27-50.71,11.6-65.77,3.08-8.17-4.62-12-11.91-10.49-19.61-1.73-2-7-4.08-12.25-5.46Z"/></g><g id="_Group_2" data-name="&lt;Group&gt;"><path class="cls-3" d="M454.62,212.49s34.17,37.66,14.07,87.21S58.65,419.18,15.44,297c0,0-33.18-110.28,63.31-126.14,0,0,0-69.37,66.34-77.3,0,0,22.1-63.43,76.37-57.48,0,0,5-9.77,3.75-18.89-.63-4.78,4.24-8.48,8.88-6.92,23.82,8.09,63.45,23.41,75.81,39.68,0,0,72.37,17.84,84.42,55.5s38.19-5.95,26.14,47.57C464.67,194.65,454.62,212.49,454.62,212.49Z"/><path d="M194.27,374.95q-6.53,0-12.87-.14C112.89,373.24,26.87,359,6.1,300.31l-.15-.45c-.72-2.39-17.35-59.11,8.36-100.32,11.76-18.85,30.23-31.24,55-36.91,2.78-27.27,19.49-69.14,68.66-78C148,61,173.66,25.79,214.52,25.79h.18a20,20,0,0,0,.68-7.29A16.14,16.14,0,0,1,221.2,3.84a16.7,16.7,0,0,1,16.05-3C277.17,14.44,303.43,28,315.45,41.17c16,4.34,76.05,23,88.3,61.27,3.37,10.5,6.15,10.62,11.22,10.85,3.91.18,10.44.48,14.86,6.25,4.29,5.63,4.77,13.79,1.48,30.16,31.35,30.75,35.43,50.28,34.18,60.49,9,12.13,30.72,48.07,12.41,93.24C462.28,341.86,309,374.95,194.27,374.95ZM24.87,294c13.43,37.35,69.16,59,157,61,57.18,1.31,124-6,183.26-19.93,63.72-15,91.37-31.6,94.41-39.09,17.41-42.93-11-75.49-12.25-76.85l-4.72-5.29,3.07-5.51c.33-1.94,1.4-16.7-31.94-48.08l-4.12-3.88,1.24-5.52c2.23-9.88,2.8-15.1,2.87-17.78-7.16-.33-21.35-1.42-28.78-24.59-8.5-26.57-58.72-44.31-77.35-48.9l-3.4-.84L302,56c-7.6-10-31.8-22.59-66.72-34.78a50.11,50.11,0,0,1-5,19.39l-3.1,6.12-6.82-.75c-45.61-5-65.13,48.62-65.93,50.91l-2.05,5.81-6.12.75c-56.61,6.76-57.59,65-57.61,67.49l0,8.37-8.26,1.38C57.55,184.4,41,194.26,31.17,210,10.87,242.41,23.88,290.43,24.87,294Zm420.68-85.42h0Zm.43-.92,0,.09Z"/></g><g class="cls-4"><path d="M265.68,30.74l-7.82,12.59C252,52.8,245.47,62.82,235.2,67.15c-8.31,3.5-17.7,2.65-26.72,2.95s-18.93,2.35-24.3,9.61c-4.91,6.64-4.58,15.6-4.91,23.85-.74,18.72-7.71,39.4-24.67,47.37-13.37,6.28-30.79,3.6-41.62,13.64-10.25,9.5-9.94,26.39-19.19,36.87-3,3.4-6.92,6-9.52,9.7-3.77,5.37-4.34,12.38-7.54,18.1-1.87,3.34-5.75,6.44-9.23,4.86-6.57,14.6-11.5,30.26-11.39,46.26s5.75,32.45,17.61,43.21c4.82,4.37,10.48,7.68,16.09,11L130,358,27.14,331.66,5,260.06s4-43.61,7.93-47.57,35.68-23.78,39.64-27.75,25.64-21.8,26.7-20.81,6.58-7.71,4.81-21.2,28-33.31,28-33.31,23.78-7.93,25.77-11.89,27.75-25.77,25.77-29.73,22.74-25.05,22.74-25.05,14.92-2.7,24.83-4.68S226,13.3,226,13.3Z"/></g><path d="M276.37,290.58c-87.62,0-206.18-105.88-211.73-110.88A9.91,9.91,0,0,1,77.91,165a679.51,679.51,0,0,0,82.66,61.8c58.93,37,106.51,51.09,137.59,40.72a9.91,9.91,0,0,1,6.27,18.8A88.44,88.44,0,0,1,276.37,290.58Z"/><path d="M209.84,322.53c-74.14,0-189.13-87.5-194-91.27a9.91,9.91,0,0,1,12.06-15.73c1.15.88,114.56,87.18,181.86,87.18l2.12,0a9.91,9.91,0,0,1,.55,19.81Q211.11,322.53,209.84,322.53Z"/><path d="M307.25,173.84a10,10,0,0,1-1.24-.08c-51.36-6.42-93.3-23.48-119.43-36.66C164.93,126.19,139.38,110,135.85,103a9.91,9.91,0,0,1,16.86-10.29c6.83,6.77,67.85,50.44,155.76,61.43a9.91,9.91,0,0,1-1.22,19.75ZM153.57,94.08h0Zm0,0h0Z"/><path d="M301.75,226.41a141.42,141.42,0,0,1-17.55-1.11,9.91,9.91,0,0,1,2.46-19.67c86.21,10.78,121-71.65,122.39-75.16a9.91,9.91,0,0,1,18.37,7.45c-.41,1-10.41,25.37-32.82,48.3C368.72,212.7,336.89,226.41,301.75,226.41Z"/><path d="M376.6,271a9.91,9.91,0,0,1-.51-19.81c35.51-1.87,85.35-22.8,85.85-23a9.91,9.91,0,0,1,7.72,18.25c-2.17.92-53.58,22.5-92.53,24.55Z"/><circle cx="188.32" cy="423.58" r="19.82"/><circle cx="311.2" cy="423.58" r="19.82"/><path class="cls-5" d="M67.41,340.33l55.5,140.73L228,520.7s-107,17.84-128.83-5.95-70.33-179-70.33-179Z"/><circle class="cls-3" cx="178.4" cy="413.67" r="9.91"/><ellipse class="cls-6" cx="113.51" cy="312.71" rx="14.5" ry="10"/><ellipse class="cls-6" cx="242.51" cy="226.71" rx="14.5" ry="10"/><ellipse class="cls-7" cx="366.51" cy="292.71" rx="14.5" ry="10"/><ellipse class="cls-7" cx="268.51" cy="57.71" rx="14.5" ry="10"/><ellipse class="cls-6" cx="182.51" cy="173.71" rx="14.5" ry="10"/><ellipse class="cls-6" cx="345.51" cy="124.71" rx="14.5" ry="10"/><circle class="cls-3" cx="299.31" cy="413.67" r="9.91"/><ellipse class="cls-8" cx="247.51" cy="98.71" rx="14.5" ry="10"/><ellipse class="cls-8" cx="406.51" cy="213.71" rx="14.5" ry="10"/><ellipse class="cls-8" cx="252.51" cy="316.71" rx="14.5" ry="10"/><ellipse class="cls-8" cx="120.51" cy="242.71" rx="14.5" ry="10"/><text class="cls-9" transform="translate(238.18 464.61) rotate(90)">3</text><ellipse class="cls-10" cx="150.51" cy="459.21" rx="22.5" ry="17.5"/><ellipse class="cls-10" cx="355.51" cy="459.21" rx="22.5" ry="17.5"/></g></g></g></svg>